<svg width="48" height="48" viewBox="0 0 48 48" fill="none" xmlns="http://www.w3.org/2000/svg">
<path d="M15 36C15.7956 36 16.5587 36.3161 17.1213 36.8787C17.6839 37.4413 18 38.2044 18 39C18 39.7956 17.6839 40.5587 17.1213 41.1213C16.5587 41.6839 15.7956 42 15 42C14.2044 42 13.4413 41.6839 12.8787 41.1213C12.3161 40.5587 12 39.7956 12 39C12 38.2044 12.3161 37.4413 12.8787 36.8787C13.4413 36.3161 14.2044 36 15 36ZM33 36C33.7956 36 34.5587 36.3161 35.1213 36.8787C35.6839 37.4413 36 38.2044 36 39C36 39.7956 35.6839 40.5587 35.1213 41.1213C34.5587 41.6839 33.7956 42 33 42C32.2044 42 31.4413 41.6839 30.8787 41.1213C30.3161 40.5587 30 39.7956 30 39C30 38.2044 30.3161 37.4413 30.8787 36.8787C31.4413 36.3161 32.2044 36 33 36Z" stroke="#333" stroke-width="2.5"/>
<path d="M26 26V22M26 22V18M26 22H30M26 22H22M4 6L4.522 6.184C7.126 7.098 8.428 7.556 9.172 8.646C9.916 9.736 9.916 11.182 9.916 14.076V19.52C9.916 25.404 10.042 27.344 11.776 29.172C13.508 31 16.296 31 21.876 31H24M32.48 31C35.602 31 37.164 31 38.268 30.1C39.37 29.2 39.686 27.672 40.316 24.614L41.316 19.766C42.01 16.286 42.356 14.548 41.468 13.394C40.582 12.24 37.548 12.24 34.178 12.24H22.048M9.916 12.24H14" stroke="#333" stroke-width="2.5" stroke-linecap="round"/>
</svg>
