<svg width="24" height="24" viewBox="0 0 24 24" fill="none" xmlns="http://www.w3.org/2000/svg">
<path d="M11.9999 12.7267L8.75589 15.9787C8.64856 16.0854 8.52922 16.1354 8.39789 16.1287C8.26656 16.1221 8.14722 16.0654 8.03989 15.9587C7.93256 15.8521 7.87922 15.7311 7.87989 15.5957C7.88056 15.4604 7.93389 15.3394 8.03989 15.2327L11.2739 11.9997L8.03989 8.78174C7.93322 8.67441 7.87989 8.55208 7.87989 8.41474C7.87989 8.27741 7.93322 8.15474 8.03989 8.04674C8.14656 7.93874 8.26789 7.88541 8.40389 7.88674C8.53989 7.88674 8.66089 7.94008 8.76689 8.04674L11.9999 11.2977L15.2189 8.04574C15.3262 7.93907 15.4456 7.88574 15.5769 7.88574C15.7082 7.88574 15.8276 7.93907 15.9349 8.04574C16.0449 8.15641 16.0999 8.27874 16.0999 8.41274C16.0999 8.54674 16.0449 8.66674 15.9349 8.77274L12.7019 11.9997L15.9539 15.2437C16.0606 15.3511 16.1139 15.4704 16.1139 15.6017C16.1139 15.7331 16.0606 15.8524 15.9539 15.9597C15.8432 16.0697 15.7209 16.1247 15.5869 16.1247C15.4529 16.1247 15.3329 16.0697 15.2269 15.9597L11.9999 12.7267Z" fill="black"/>
</svg>
